<?xml version="1.0" encoding="utf-8"?>
<!-- Generator: Adobe Illustrator 27.6.1, SVG Export Plug-In . SVG Version: 6.00 Build 0)  -->
<svg version="1.1" id="Layer_1" xmlns="http://www.w3.org/2000/svg" xmlns:xlink="http://www.w3.org/1999/xlink" x="0px" y="0px"
	 viewBox="0 0 15 15" style="enable-background:new 0 0 15 15;" xml:space="preserve">
<style type="text/css">
	.st0{fill:#9E2A21;}
	.st1{fill:#00AD91;}
	.st2{fill:#009CDE;}
	.st3{fill:#00559D;}
	.st4{fill:#E63227;}
</style>
<path class="st0" d="M6.2,0.1C2.7,0.7-1,4.2,0.5,9.7c1.6,6,9,6.7,12.1,3.3s2.5-6.4,0.9-9.4C12.4,1.6,9.9-0.4,6.2,0.1z"/>
<g>
	<g>
		<path class="st1" d="M4.6,1.4C2.8,2.2,2.1,3.5,2.6,4c0.2,0.3,0.8,0.4,1.3,0.7C4.5,5,5.1,5.5,5.3,5.5C5.8,5.6,6,5.2,6.3,5
			c0.4-0.2,0.7-0.2,0.8-0.5c0.1-0.3,0.1-1,0.3-1.8C7.6,2,8.1,1.2,7.8,0.9C7.4,0.4,5.8,0.8,4.6,1.4z"/>
		<path class="st1" d="M8.7,1.1C8.3,1.3,8.1,1.9,7.8,3C7.6,4,7.4,4.7,7.7,4.9c0.3,0.1,0.7,0.2,1,0.6c0.3,0.3,0.6,1,1,1
			c0.4,0,2.1-1.1,2.5-1.3c0.6-0.3,0.5-0.9,0.1-1.5s-2.2-2.3-2.5-2.5S9.1,1,8.7,1.1z"/>
		<path class="st1" d="M1,6.6c-0.1,1.5-0.1,3,0.6,3.2C2.2,10,2.4,9.7,3.3,9.3S5,8.7,5.1,8.5c0.1-0.3,0-0.7,0-1.2s0.3-0.7,0.2-1.1
			C5.3,6,4.6,5.6,3.8,5.2C3,4.7,2.6,4.3,2.1,4.5C1.3,4.8,1.1,5.5,1,6.6z"/>
		<path class="st1" d="M6.2,9.7c0.3,0.2,1,0.3,0.9,0.7c-0.1,0.4-0.1,1.1-0.2,1.8c-0.1,0.7,0,1.6-0.6,1.8c-0.6,0.2-2.3-0.5-3.2-1.3
			c-0.9-0.8-1.5-1.7-1.3-2.1S2.4,10,3.3,9.7c0.9-0.3,1.8-0.8,2-0.7C5.6,9.1,5.9,9.5,6.2,9.7z"/>
		<path class="st1" d="M8.5,9.9C9,9.7,9.2,9.4,9.4,9.4c0.4,0.1,1.2,0.9,1.7,1.2c0.6,0.3,1.4,0.8,1.3,1.2s-0.8,1.1-2,1.8
			c-1.5,0.8-2.7,0.8-3.1,0.5c-0.4-0.4-0.1-1.3-0.1-2s0-1.7,0.2-1.9C7.6,10.1,8.3,10.1,8.5,9.9z"/>
		<path class="st1" d="M9.8,7.9c0,0.5-0.2,0.8-0.1,1.1c0.2,0.4,2.5,2.1,3,2.1c0.5,0,1.5-1.3,1.3-3.1c-0.2-1.8-0.6-2.7-1.1-2.6
			s-1.2,0.6-1.7,0.9c-0.5,0.3-1.4,0.5-1.5,0.7C9.6,7.2,9.9,7.6,9.8,7.9z"/>
	</g>
	<path class="st2" d="M7.3,5.9c-0.9,0-1.5,0.7-1.6,1.6s0.6,1.6,1.5,1.7s1.8-0.7,1.8-1.6S8.4,5.9,7.3,5.9z"/>
	<path class="st3" d="M7.3,6.2c-0.7,0-1.1,0.6-1.2,1.2C6.1,8.2,6.6,8.7,7.3,8.8s1.4-0.6,1.4-1.2C8.7,7,8.1,6.3,7.3,6.2z"/>
	<g>
		<path class="st4" d="M11.8,6.7c-0.6,0.1-0.9,0.4-1,1.2s0.1,1.4,1.1,1.4c1,0,0.9-0.7,1.1-1.4C13,7.2,12.4,6.6,11.8,6.7z"/>
		<path class="st4" d="M8.6,3C8.4,3.5,8.3,4,8.9,4.7c0.6,0.7,1.3,0.4,1.8,0.2c0.5-0.3,0.3-1.2-0.2-1.7C10,2.7,9,2.4,8.6,3z"/>
		<path class="st4" d="M4.3,3.9c0.3,0.3,1.2,0.4,1.8,0S7,2.5,6.6,2.2s-1.3-0.3-2,0.1S3.9,3.6,4.3,3.9z"/>
		<path class="st4" d="M2.8,8.5c0.6-0.1,1.4-0.3,1.5-1.1S4.1,5.7,3.4,5.6S2.3,6.1,2.1,6.9S2.3,8.5,2.8,8.5z"/>
		<path class="st4" d="M3.7,10.5c-0.3,0.5-0.2,1.2,0.5,1.6c0.7,0.4,1.4,0.6,1.8-0.2c0.4-0.8,0-1.3-0.6-1.7C5,9.9,4.1,10.1,3.7,10.5z
			"/>
		<path class="st4" d="M8.2,12.4c0.4,0.5,1,0.8,1.9,0.3s0.9-1.4,0.4-1.8c-0.5-0.4-1-0.3-1.7-0.1S7.7,11.8,8.2,12.4z"/>
	</g>
</g>
</svg>
