<?xml version="1.0" encoding="utf-8"?>
<!-- Generator: Adobe Illustrator 27.6.1, SVG Export Plug-In . SVG Version: 6.00 Build 0)  -->
<svg version="1.1" id="Layer_1" xmlns="http://www.w3.org/2000/svg" xmlns:xlink="http://www.w3.org/1999/xlink" x="0px" y="0px"
	 viewBox="0 0 15 15" style="enable-background:new 0 0 15 15;" xml:space="preserve">
<style type="text/css">
	.st0{fill:#009CDE;}
	.st1{fill:#C0CAE8;}
	.st2{fill:#9E2A21;}
	.st3{fill:#ED6A00;}
	.st4{fill:#01A640;}
	.st5{fill:#006532;}
	.st6{fill:#E63227;}
	.st7{fill:#FFE800;}
	.st8{fill:#FEC81C;}
	.st9{fill:#F299BA;}
	.st10{fill:#DA4793;}
</style>
<g>
	<path class="st0" d="M11.9,1.5c1.3,0.6,3.5,1.4,2.8,6.4c-0.8,5.1-2.3,6.9-7.8,6.7c-5.5-0.2-6.4-4.5-6.7-7.2C0,4.7,1.9,2,4.1,1.1
		C7,0,9.8,0.5,11.9,1.5z"/>
	<path class="st1" d="M11.7,2.5c1,0.6,2.7,1.2,2.1,5.3c-0.7,4.4-2,6.1-6.8,5.9c-4.8-0.2-5.6-3.8-5.8-6.2C0.9,5.1,2.5,2.7,4.4,2
		C7.4,0.8,10.4,1.7,11.7,2.5z"/>
	<path class="st2" d="M6.3,3.2c1.4,0.1,2.2,0.7,2.2,1.9c0,1.2-0.7,2.3-2.5,2.2C4.1,7.1,3.8,5.9,3.9,4.9C4,3.9,4.8,3.2,6.3,3.2z"/>
	<path class="st3" d="M6.2,3.9c0.9,0,1.4,0.4,1.4,1.2c0,0.8-0.4,1.5-1.6,1.4C4.9,6.4,4.7,5.7,4.7,5C4.8,4.4,5.3,3.9,6.2,3.9z"/>
	<path class="st4" d="M8.5,7.8c1.5,0,2.7,0.8,2.8,2.4c0.1,1.6-0.9,2.9-3,3c-2.3,0-3.2-1.7-3-3.2C5.4,8.4,6.9,7.7,8.5,7.8z"/>
	<path class="st5" d="M8.5,8.7c1.1,0,1.8,0.5,1.9,1.6c0.1,1.1-0.6,2-2.1,2c-1.5,0-2.2-1.1-2-2.2C6.4,9.1,7.4,8.6,8.5,8.7z"/>
	<path class="st6" d="M3.6,6.7c1,0.1,1.9,0.6,1.9,1.9s-1,2-2.2,1.8C2.1,10.3,1.5,9,1.7,8.2C1.8,7.3,2.5,6.7,3.6,6.7z"/>
	<path class="st7" d="M11.8,7.7c0.4,0,0.8,0.3,0.8,1s-0.5,1.1-1,1c-0.5-0.1-0.8-0.8-0.7-1.2C11,8,11.3,7.6,11.8,7.7z"/>
	<path class="st8" d="M10.3,5.1c0.9,0,1.8,0.6,1.7,1.5c-0.1,0.9-0.7,1.4-1.7,1.3C9.2,7.8,8.7,7.1,8.8,6.4C8.9,5.6,9.4,5.1,10.3,5.1z
		"/>
	<path class="st9" d="M10.1,2.4c0.7,0,1.4,0.5,1.3,1.4C11.4,4.6,10.9,5,10.1,5C9.3,4.9,8.9,4.3,8.9,3.7C9,2.9,9.4,2.5,10.1,2.4z"/>
	<path class="st10" d="M10.1,2.9c0.5,0,0.9,0.4,0.9,0.9c-0.1,0.5-0.4,0.8-0.9,0.8C9.5,4.5,9.3,4.1,9.3,3.7C9.4,3.2,9.6,2.9,10.1,2.9
		z"/>
</g>
</svg>
