<?xml version="1.0" encoding="utf-8"?>
<!-- Generator: Adobe Illustrator 27.6.1, SVG Export Plug-In . SVG Version: 6.00 Build 0)  -->
<svg version="1.1" id="Layer_1" xmlns="http://www.w3.org/2000/svg" xmlns:xlink="http://www.w3.org/1999/xlink" x="0px" y="0px"
	 viewBox="0 0 15 15" style="enable-background:new 0 0 15 15;" xml:space="preserve">
<style type="text/css">
	.st0{fill:#891A50;}
	.st1{fill:#F299BA;}
	.st2{fill:#ED6A00;}
</style>
<g>
	<path class="st0" d="M4.2,0.8C0.8,2.3-1.1,7.4,1,11.5s7.7,3.8,10.8,2.1s3.8-7.3,2.4-9.7S8.3-1,4.2,0.8z"/>
	<path class="st1" d="M4.6,1.5c-3.1,1.3-4.8,5.9-2.9,9.6s6.9,3.4,9.7,1.9s3.4-6.5,2.1-8.7S8.2-0.1,4.6,1.5z"/>
	<path class="st2" d="M6.4,2.7c-0.3,0,0.3,2.1-0.9,2.7s-2-0.2-2.4,0.1s1.1,1.1,0.7,1.9C3.5,8.1,2.2,8.4,2.2,8.5
		c0,0.2,1.9,0.2,2.2,0.8C4.8,10,3.9,11,4.1,11.1c0.2,0.1,1.5-0.8,2.2-0.4s0.6,2.1,1,2c0.2,0,0.3-1.6,1.5-1.8c1.1-0.2,1.8,0.7,2,0.5
		c0.2-0.2-0.3-1.8-0.3-2.3c0-0.5,1.5-0.7,1.6-1c0-0.3-1.4-0.5-1.6-1.1c-0.2-0.6,1.1-1.9,1-2c-0.1-0.1-1,0.5-1.7,0.2
		C9.1,5,9.8,3.6,9.7,3.5S8.5,4.4,7.7,4.3C7,4.3,6.8,2.6,6.4,2.7z"/>
</g>
</svg>
